<svg xmlns="http://www.w3.org/2000/svg" width="900" height="540" viewBox="0 0 900 540" font-family="Helvetica, Arial, sans-serif">
  <rect width="900" height="540" fill="#ffffff"/>
  <defs>
    <marker id="a2" markerWidth="8" markerHeight="8" refX="6" refY="3" orient="auto" markerUnits="strokeWidth">
      <path d="M0,0 L6,3 L0,6 Z" fill="#5A5A5A"/>
    </marker>
  </defs>

  <!-- XIAO column -->
  <text x="220" y="48" font-size="13" font-weight="600" text-anchor="middle" fill="#1A2A3A">XIAO ESP32-C3</text>
  <line x1="120" y1="58" x2="320" y2="58" stroke="#C8C8C8" stroke-width="0.8"/>
  <g font-size="10.5" text-anchor="middle" fill="#222">
    <rect x="120" y="72" width="200" height="36" rx="18" fill="#EDEDED" stroke="#555" stroke-width="1.1"/><text x="220" y="94">დაწყება / I2C ინიციალიზაცია</text>
    <rect x="120" y="128" width="200" height="36" rx="2" fill="#fff" stroke="#555" stroke-width="1.1"/><text x="220" y="150">სენსორების წაკითხვა</text>
    <rect x="120" y="184" width="200" height="36" rx="2" fill="#fff" stroke="#555" stroke-width="1.1"/><text x="220" y="206">BPM-ის გამოთვლა</text>
    <polygon points="220,238 318,272 220,306 122,272" fill="#fff" stroke="#555" stroke-width="1.1"/><text x="220" y="276">BLE დაკავშირებულია?</text>
    <rect x="120" y="324" width="200" height="36" rx="2" fill="#fff" stroke="#555" stroke-width="1.1"/><text x="220" y="346">JSON პაკეტის გაგზავნა</text>
    <rect x="120" y="380" width="200" height="36" rx="2" fill="#fff" stroke="#555" stroke-width="1.1"/><text x="220" y="402">დაყოვნება 500 ms</text>
  </g>
  <line x1="220" y1="108" x2="220" y2="126" stroke="#5A5A5A" stroke-width="1.1" marker-end="url(#a2)"/>
  <line x1="220" y1="164" x2="220" y2="182" stroke="#5A5A5A" stroke-width="1.1" marker-end="url(#a2)"/>
  <line x1="220" y1="220" x2="220" y2="236" stroke="#5A5A5A" stroke-width="1.1" marker-end="url(#a2)"/>
  <line x1="220" y1="306" x2="220" y2="322" stroke="#5A5A5A" stroke-width="1.1" marker-end="url(#a2)"/>
  <text x="230" y="320" font-size="9" fill="#777">კი</text>
  <line x1="220" y1="360" x2="220" y2="378" stroke="#5A5A5A" stroke-width="1.1" marker-end="url(#a2)"/>
  <path d="M120,398 L66,398 L66,146 L118,146" stroke="#5A5A5A" stroke-width="1.1" fill="none" marker-end="url(#a2)"/>

  <!-- DevKit column -->
  <text x="660" y="48" font-size="13" font-weight="600" text-anchor="middle" fill="#1A2A3A">ESP32 DevKit V1</text>
  <line x1="560" y1="58" x2="760" y2="58" stroke="#C8C8C8" stroke-width="0.8"/>
  <g font-size="10.5" text-anchor="middle" fill="#222">
    <rect x="560" y="72" width="200" height="36" rx="18" fill="#EDEDED" stroke="#555" stroke-width="1.1"/><text x="660" y="94">დაწყება / AP + ვებ-სერვერი</text>
    <rect x="560" y="128" width="200" height="36" rx="2" fill="#fff" stroke="#555" stroke-width="1.1"/><text x="660" y="150">BLE სკანირება</text>
    <polygon points="660,182 758,216 660,250 562,216" fill="#fff" stroke="#555" stroke-width="1.1"/><text x="660" y="220">XIAO ნაპოვნია?</text>
    <rect x="560" y="268" width="200" height="36" rx="2" fill="#fff" stroke="#555" stroke-width="1.1"/><text x="660" y="290">დაკავშირება / გამოწერა</text>
    <rect x="560" y="324" width="200" height="36" rx="2" fill="#fff" stroke="#555" stroke-width="1.1"/><text x="660" y="346">მონაცემის ანალიზი (AC)</text>
    <rect x="560" y="380" width="200" height="36" rx="2" fill="#fff" stroke="#555" stroke-width="1.1"/><text x="660" y="402">/data ბრაუზერისთვის</text>
  </g>
  <line x1="660" y1="108" x2="660" y2="126" stroke="#5A5A5A" stroke-width="1.1" marker-end="url(#a2)"/>
  <line x1="660" y1="164" x2="660" y2="180" stroke="#5A5A5A" stroke-width="1.1" marker-end="url(#a2)"/>
  <line x1="660" y1="250" x2="660" y2="266" stroke="#5A5A5A" stroke-width="1.1" marker-end="url(#a2)"/>
  <text x="670" y="264" font-size="9" fill="#777">კი</text>
  <line x1="660" y1="304" x2="660" y2="322" stroke="#5A5A5A" stroke-width="1.1" marker-end="url(#a2)"/>
  <line x1="660" y1="360" x2="660" y2="378" stroke="#5A5A5A" stroke-width="1.1" marker-end="url(#a2)"/>
  <path d="M562,216 L505,216 L505,146 L558,146" stroke="#5A5A5A" stroke-width="1.1" fill="none" marker-end="url(#a2)"/>
  <text x="508" y="185" font-size="9" fill="#777">არა</text>
  <path d="M660,416 L820,416 L820,342 L762,342" stroke="#5A5A5A" stroke-width="1.1" fill="none" marker-end="url(#a2)"/>
</svg>
