<svg xmlns="http://www.w3.org/2000/svg" width="900" height="430" viewBox="0 0 900 430" font-family="Helvetica, Arial, sans-serif">
  <rect width="900" height="430" fill="#ffffff"/>

  <!-- XIAO -->
  <rect x="360" y="110" width="180" height="230" rx="3" fill="#ECF1F6" stroke="#2A4A6B" stroke-width="1.6"/>
  <text x="450" y="135" font-size="13" font-weight="600" text-anchor="middle" fill="#1A2A3A">XIAO ESP32-C3</text>
  <line x1="380" y1="146" x2="520" y2="146" stroke="#B8C4D0" stroke-width="0.8"/>
  <text x="372" y="178" font-size="11" fill="#333">3V3</text>
  <text x="372" y="213" font-size="11" fill="#333">GND</text>
  <text x="372" y="248" font-size="11" fill="#333">D4 (SDA)</text>
  <text x="372" y="283" font-size="11" fill="#333">D5 (SCL)</text>
  <circle cx="360" cy="174" r="3.2" fill="#2A4A6B"/>
  <circle cx="360" cy="209" r="3.2" fill="#2A4A6B"/>
  <circle cx="360" cy="244" r="3.2" fill="#2A4A6B"/>
  <circle cx="360" cy="279" r="3.2" fill="#2A4A6B"/>

  <!-- TMP117 -->
  <rect x="50" y="85" width="150" height="100" rx="3" fill="#F7F7F7" stroke="#4A4A4A" stroke-width="1.3"/>
  <text x="125" y="108" font-size="12" font-weight="600" text-anchor="middle" fill="#1A1A1A">TMP117 (0x48)</text>
  <line x1="68" y1="118" x2="182" y2="118" stroke="#D0D0D0" stroke-width="0.8"/>
  <text x="62" y="138" font-size="10.5" fill="#333">VIN</text>
  <text x="62" y="155" font-size="10.5" fill="#333">GND</text>
  <text x="62" y="172" font-size="10.5" fill="#333">SDA</text>
  <text x="105" y="172" font-size="10.5" fill="#333">SCL</text>
  <circle cx="200" cy="134" r="2.6" fill="#444"/>
  <circle cx="200" cy="151" r="2.6" fill="#444"/>
  <circle cx="200" cy="168" r="2.6" fill="#444"/>

  <!-- MAX30102 -->
  <rect x="50" y="265" width="150" height="100" rx="3" fill="#F7F7F7" stroke="#4A4A4A" stroke-width="1.3"/>
  <text x="125" y="288" font-size="12" font-weight="600" text-anchor="middle" fill="#1A1A1A">MAX30102 (0x57)</text>
  <line x1="68" y1="298" x2="182" y2="298" stroke="#D0D0D0" stroke-width="0.8"/>
  <text x="62" y="318" font-size="10.5" fill="#333">VIN</text>
  <text x="62" y="335" font-size="10.5" fill="#333">GND</text>
  <text x="62" y="352" font-size="10.5" fill="#333">SDA / SCL</text>
  <circle cx="200" cy="314" r="2.6" fill="#444"/>
  <circle cx="200" cy="331" r="2.6" fill="#444"/>
  <circle cx="200" cy="348" r="2.6" fill="#444"/>

  <!-- wires TMP117 -->
  <path d="M200,134 L280,134 L280,174 L360,174" stroke="#B23B3B" stroke-width="1.6" fill="none"/>
  <path d="M200,151 L300,151 L300,209 L360,209" stroke="#3A3A3A" stroke-width="1.6" fill="none"/>
  <path d="M200,168 L320,168 L320,244 L360,244" stroke="#2F6690" stroke-width="1.6" fill="none"/>
  <path d="M125,185 L125,210 L340,210 L340,279 L360,279" stroke="#3E8E5A" stroke-width="1.6" fill="none"/>

  <!-- wires MAX30102 -->
  <path d="M200,314 L280,314 L280,174" stroke="#B23B3B" stroke-width="1.6" fill="none" stroke-dasharray="5 3"/>
  <path d="M200,331 L300,331 L300,209" stroke="#3A3A3A" stroke-width="1.6" fill="none" stroke-dasharray="5 3"/>
  <path d="M200,348 L320,348 L320,244" stroke="#2F6690" stroke-width="1.6" fill="none" stroke-dasharray="5 3"/>

  <!-- color legend -->
  <text x="600" y="150" font-size="12" font-weight="600" fill="#1A1A1A">ფერები</text>
  <line x1="600" y1="170" x2="638" y2="170" stroke="#B23B3B" stroke-width="2.6"/><text x="646" y="174" font-size="10.5" fill="#333">3V3 (კვება)</text>
  <line x1="600" y1="192" x2="638" y2="192" stroke="#3A3A3A" stroke-width="2.6"/><text x="646" y="196" font-size="10.5" fill="#333">GND</text>
  <line x1="600" y1="214" x2="638" y2="214" stroke="#2F6690" stroke-width="2.6"/><text x="646" y="218" font-size="10.5" fill="#333">SDA (D4)</text>
  <line x1="600" y1="236" x2="638" y2="236" stroke="#3E8E5A" stroke-width="2.6"/><text x="646" y="240" font-size="10.5" fill="#333">SCL (D5)</text>
  <text x="600" y="280" font-size="10" fill="#666">ორივე სენსორი იზიარებს ერთსა და</text>
  <text x="600" y="296" font-size="10" fill="#666">იმავე I2C ხაზს (წყვეტილი = MAX30102)</text>
</svg>
